<svg width="16" height="16" viewBox="0 0 16 16" fill="none" xmlns="http://www.w3.org/2000/svg">
<g clip-path="url(#clip0_8_52)">
<path d="M16 15.0573L11.8253 10.8827C12.9097 9.5564 13.4429 7.86407 13.3145 6.15571C13.1862 4.44736 12.4061 2.85369 11.1357 1.70435C9.86528 0.555014 8.2017 -0.0620646 6.48907 -0.0192434C4.77644 0.0235778 3.14578 0.723023 1.93439 1.93442C0.722992 3.14581 0.0235473 4.77647 -0.0192739 6.4891C-0.0620951 8.20174 0.554984 9.86531 1.70432 11.1357C2.85366 12.4062 4.44733 13.1862 6.15568 13.3146C7.86404 13.4429 9.55637 12.9098 10.8826 11.8253L15.0573 16L16 15.0573ZM6.66664 12C5.61181 12 4.58066 11.6872 3.7036 11.1012C2.82654 10.5151 2.14295 9.68219 1.73929 8.70765C1.33562 7.73311 1.23 6.66076 1.43579 5.62619C1.64158 4.59163 2.14953 3.64132 2.89541 2.89544C3.64129 2.14956 4.5916 1.64161 5.62616 1.43582C6.66073 1.23003 7.73308 1.33565 8.70762 1.73932C9.68216 2.14298 10.5151 2.82657 11.1011 3.70363C11.6872 4.58069 12 5.61184 12 6.66667C11.9984 8.08067 11.436 9.43631 10.4361 10.4362C9.43628 11.436 8.08064 11.9984 6.66664 12Z" fill="white"/>
</g>
<defs>
<clipPath id="clip0_8_52">
<rect width="16" height="16" fill="white"/>
</clipPath>
</defs>
</svg>
