<svg width="18" height="18" viewBox="0 0 18 18" fill="none" xmlns="http://www.w3.org/2000/svg">
<g clip-path="url(#clip0_3_521)">
<path fill-rule="evenodd" clip-rule="evenodd" d="M17.3175 0.6825C16.86 0.225 16.32 0 15.69 0H2.31C1.6725 0 1.1325 0.225 0.6825 0.6825C0.2325 1.14 0 1.68 0 2.31V15.69C0 16.3275 0.225 16.8675 0.6825 17.3175C1.14 17.7675 1.68 18 2.31 18H15.69C16.3275 18 16.8675 17.775 17.3175 17.3175C17.7675 16.86 18 16.32 18 15.69V2.31C18 1.6725 17.775 1.1325 17.3175 0.6825ZM6.4575 6.4875C7.1625 5.805 8.0175 5.46 9.0075 5.46C10.005 5.46 10.86 5.805 11.565 6.4875C12.27 7.17 12.6225 7.995 12.6225 8.9625C12.6225 9.93 12.27 10.755 11.565 11.4375C10.86 12.12 10.005 12.465 9.0075 12.465C8.0175 12.465 7.1625 12.12 6.4575 11.4375C5.7525 10.755 5.4 9.93 5.4 8.9625C5.4 7.995 5.7525 7.17 6.4575 6.4875ZM15.9525 15.21C15.9525 15.4125 15.885 15.585 15.7425 15.72C15.6774 15.7873 15.5992 15.8406 15.5128 15.8767C15.4265 15.9128 15.3336 15.9309 15.24 15.93H2.715C2.62018 15.9315 2.52605 15.9137 2.43836 15.8776C2.35067 15.8414 2.27127 15.7878 2.205 15.72C2.13816 15.6534 2.0857 15.5737 2.05087 15.486C2.01604 15.3983 1.99958 15.3043 2.0025 15.21V7.6125H3.6525C3.49617 8.10994 3.41774 8.62858 3.42 9.15C3.42 10.65 3.9675 11.9325 5.0625 12.99C6.1575 14.0475 7.47 14.58 9.015 14.58C10 14.5879 10.9699 14.3371 11.8275 13.8525C12.6692 13.386 13.3729 12.7056 13.8675 11.88C14.364 11.0591 14.6235 10.1168 14.6175 9.1575C14.6175 8.625 14.535 8.115 14.385 7.62H15.9675V15.21H15.9525ZM15.9525 4.7475C15.9525 4.9725 15.87 5.1675 15.72 5.325C15.6446 5.40097 15.5545 5.46076 15.4552 5.50074C15.3559 5.54071 15.2495 5.56003 15.1425 5.5575H13.1025C12.8775 5.5575 12.6825 5.475 12.525 5.325C12.449 5.24959 12.3892 5.15949 12.3493 5.0602C12.3093 4.96091 12.29 4.85451 12.2925 4.7475V2.8125C12.2925 2.595 12.375 2.4075 12.525 2.2425C12.675 2.0775 12.8775 2.0025 13.1025 2.0025H15.1425C15.3675 2.0025 15.5625 2.085 15.72 2.2425C15.8775 2.4 15.9525 2.595 15.9525 2.8125V4.7475Z" fill="black"/>
</g>
<defs>
<clipPath id="clip0_3_521">
<rect width="18" height="18" fill="white"/>
</clipPath>
</defs>
</svg>
