<svg width="1069" height="334" viewBox="0 0 1069 334" fill="none" xmlns="http://www.w3.org/2000/svg">
<g clip-path="url(#clip0_8_38)">
<path d="M563.389 83.9192C563.389 95.9563 553.704 105.649 541.684 105.649C529.664 105.649 519.985 95.9563 519.985 83.9192C519.985 71.882 529.334 62.1895 541.684 62.1895C554.044 62.5235 563.389 72.2194 563.389 83.9192ZM473.912 127.719V133.07C473.912 133.07 463.567 119.69 441.531 119.69C405.144 119.69 376.761 147.441 376.761 185.887C376.761 224.003 404.81 252.085 441.531 252.085C463.9 252.085 473.912 238.378 473.912 238.378V244.059C473.912 246.734 475.92 248.735 478.588 248.735H505.627V123.023H478.588C475.92 123.033 473.912 125.378 473.912 127.719ZM473.912 208.288C468.909 215.646 458.891 221.999 446.874 221.999C425.508 221.999 409.146 208.626 409.146 185.887C409.146 163.152 425.508 149.779 446.874 149.779C458.56 149.779 469.243 156.466 473.912 163.486V208.288ZM525.662 123.033H557.71V248.745H525.662V123.033ZM1004.41 119.687C982.379 119.687 972.026 133.066 972.026 133.066V62.5235H939.978V248.745H967.024C969.695 248.745 971.693 246.404 971.693 244.062V238.381C971.693 238.381 982.045 252.088 1004.07 252.088C1040.47 252.088 1068.84 224.013 1068.84 185.897C1068.84 147.782 1040.47 119.687 1004.41 119.687ZM999.072 221.661C986.715 221.661 977.036 215.315 972.026 207.954V163.152C977.036 156.466 987.719 149.445 999.072 149.445C1020.44 149.445 1036.8 162.818 1036.8 185.553C1036.8 208.288 1020.44 221.661 999.072 221.661ZM923.289 174.191V249.079H891.234V177.865C891.234 157.14 884.557 148.777 866.54 148.777C856.862 148.777 846.842 153.794 840.489 161.152V248.748H808.447V123.036H833.812C836.483 123.036 838.488 125.378 838.488 127.719V133.07C847.836 123.37 860.187 119.69 872.537 119.69C886.561 119.69 898.248 123.708 907.597 131.73C918.943 141.092 923.289 153.126 923.289 174.191ZM730.647 119.687C708.618 119.687 698.266 133.066 698.266 133.066V62.5235H666.217V248.745H693.256C695.927 248.745 697.932 246.404 697.932 244.062V238.381C697.932 238.381 708.284 252.088 730.313 252.088C766.707 252.088 795.083 224.013 795.083 185.897C795.417 147.779 767.041 119.687 730.647 119.687ZM725.304 221.661C712.954 221.661 703.275 215.315 698.266 207.954V163.152C703.275 156.466 713.958 149.445 725.304 149.445C746.676 149.445 763.032 162.818 763.032 185.553C763.032 208.288 746.676 221.661 725.304 221.661ZM638.505 119.687C648.184 119.687 653.193 121.363 653.193 121.363V151.115C653.193 151.115 626.485 142.087 609.796 161.148V249.075H577.741V123.033H604.786C607.458 123.033 609.455 125.374 609.455 127.716V133.066C615.472 126.042 628.493 119.687 638.505 119.687ZM305.654 237.376C303.987 233.365 302.316 229.019 300.648 225.339C297.973 219.323 295.302 213.635 292.97 208.288L292.637 207.954C269.597 157.802 244.897 106.988 218.852 56.8423L217.851 54.8316C215.112 49.6296 212.443 44.391 209.843 39.1173C206.502 33.0954 203.166 26.7495 197.823 20.7276C187.141 7.35449 171.782 -0.00338745 155.426 -0.00338745C138.73 -0.00338745 123.708 7.35452 112.695 20.0563C107.686 26.0715 104.011 32.4241 100.675 38.446C98.0697 43.7164 95.4002 48.9549 92.6675 54.1603L91.6636 56.1709C65.9558 106.317 40.9183 157.134 17.882 207.283L17.5452 207.948C15.2105 213.305 12.5357 218.986 9.86416 224.998C8.19655 228.679 6.52894 232.69 4.86134 237.035C0.518889 249.403 -0.818596 261.106 0.855681 273.146C4.52775 298.223 21.2172 319.278 44.2568 328.646C52.9384 332.327 61.9535 333.997 71.2987 333.997C73.9702 333.997 77.3055 333.663 79.9804 333.325C90.9999 331.989 102.35 328.315 113.369 321.963C127.057 314.271 140.077 303.243 154.766 287.194C169.454 303.243 182.808 314.271 196.162 321.963C207.185 328.315 218.532 331.989 229.548 333.325C232.219 333.666 235.561 333.997 238.233 333.997C247.581 333.997 256.927 332.327 265.271 328.646C288.645 319.278 305 297.889 308.676 273.146C311.327 261.447 309.993 249.75 305.654 237.376ZM155.089 254.76C137.059 232.025 125.373 210.63 121.37 192.581C119.703 184.889 119.366 178.202 120.37 172.184C121.033 166.833 123.041 162.15 125.713 158.139C132.056 149.118 142.739 143.43 155.093 143.43C167.45 143.43 178.466 148.781 184.476 158.139C187.147 162.15 189.149 166.836 189.822 172.184C190.819 178.205 190.486 185.223 188.818 192.581C184.799 210.296 173.113 231.694 155.089 254.76ZM288.291 270.475C285.956 287.859 274.27 302.908 257.914 309.595C249.903 312.935 241.218 313.94 232.543 312.935C224.198 311.93 215.847 309.254 207.172 304.244C195.152 297.551 183.135 287.194 169.111 271.81C191.143 244.734 204.497 219.988 209.507 197.928C211.845 187.561 212.182 178.202 211.174 169.505C209.844 161.148 206.835 153.457 202.162 146.77C191.807 131.72 174.444 123.033 155.086 123.033C135.728 123.033 118.365 132.061 108.016 146.77C103.343 153.457 100.335 161.148 99.001 169.505C97.6669 178.202 97.9971 187.895 100.669 197.928C105.675 219.988 119.363 245.064 141.061 272.144C127.374 287.525 115.02 297.892 103 304.579C94.3184 309.595 85.977 312.27 77.6323 313.269C68.6206 314.274 59.9357 312.935 52.258 309.929C35.9022 303.243 24.2156 288.193 21.8809 270.808C20.8804 262.452 21.5441 254.095 24.8859 244.734C25.8832 241.387 27.5574 238.047 29.225 234.036C31.563 228.685 34.2279 222.997 36.9027 217.316L37.2396 216.651C60.2726 166.833 84.9765 116.016 110.684 66.5381L111.685 64.5275C114.36 59.5176 117.031 54.167 119.699 49.1504C122.371 43.7999 125.373 38.7833 129.048 34.4347C136.059 26.4188 145.404 22.0669 155.756 22.0669C166.109 22.0669 175.454 26.4188 182.465 34.4347C186.14 38.7933 189.142 43.8099 191.813 49.1504C194.488 54.167 197.16 59.5176 199.825 64.5275L200.828 66.5381C226.144 116.221 250.52 166.38 273.943 216.985V217.319C276.618 222.677 278.952 228.689 281.624 234.046C283.292 238.05 284.962 241.39 285.963 244.737C288.628 253.421 289.628 261.784 288.291 270.475Z" fill="white"/>
</g>
<defs>
<clipPath id="clip0_8_38">
<rect width="1069" height="334" fill="white"/>
</clipPath>
</defs>
</svg>
