<svg width="18" height="18" viewBox="0 0 18 18" fill="none" xmlns="http://www.w3.org/2000/svg">
<path fill-rule="evenodd" clip-rule="evenodd" d="M4.5 8.10563V5.76C4.5 5.52375 4.69688 5.30438 4.93313 5.30438H6.35063V4.13438C6.35063 1.41187 7.74562 0.0225 10.5244 0C11.4525 0 12.3356 0.118125 13.1625 0.36C13.4212 0.43875 13.5169 0.59625 13.5 0.855L13.185 3.13875C13.1625 3.24 13.1063 3.33563 13.005 3.43688C12.8869 3.49875 12.7688 3.53813 12.6506 3.51562C12.1556 3.375 11.6494 3.31875 11.0756 3.31875C10.2881 3.31875 10.17 3.47625 10.17 4.29187V5.30438H12.7125C12.9488 5.30438 13.1681 5.54063 13.1681 5.79938L12.9712 8.145C12.9712 8.38125 12.7744 8.54437 12.5381 8.54437H10.17V17.5444C10.17 17.7806 9.97312 18 9.73687 18H6.80625C6.57 18 6.35625 17.7806 6.35625 17.5444V8.54437H4.93875C4.82239 8.54437 4.71079 8.49815 4.62851 8.41587C4.54623 8.33359 4.5 8.22199 4.5 8.10563Z" fill="black"/>
</svg>
