<svg width="18" height="18" viewBox="0 0 18 18" fill="none" xmlns="http://www.w3.org/2000/svg">
<path fill-rule="evenodd" clip-rule="evenodd" d="M17.4375 3.5775C16.785 3.85313 16.1325 4.03875 15.4406 4.11188C16.1663 3.68437 16.6894 3.06 16.9706 2.21063C16.2881 2.6104 15.5454 2.89723 14.7712 3.06C14.0794 2.34 13.2244 1.96875 12.2344 1.96875C10.3162 1.96875 8.76375 3.50437 8.76375 5.41125C8.76375 5.68687 8.80313 5.94563 8.85938 6.1875C6.08063 6.05813 3.51 4.725 1.73812 2.59875C1.42312 3.13312 1.25437 3.70687 1.25437 4.33687C1.25437 5.50125 1.83375 6.53625 2.80125 7.18313C2.23875 7.16625 1.72125 7.01438 1.215 6.75563V6.795C1.215 8.42063 2.4075 9.84375 3.99375 10.1587C3.63937 10.2544 3.34125 10.2881 3.0825 10.2881C2.91375 10.2881 2.68875 10.2712 2.44687 10.215C2.66425 10.9026 3.09373 11.5036 3.67375 11.9321C4.25377 12.3605 4.95455 12.5943 5.67562 12.6C4.42688 13.5787 2.98688 14.0794 1.36688 14.0794C1.05188 14.0794 0.770625 14.0625 0.5625 14.0231C2.16562 15.0581 3.9375 15.5756 5.85563 15.5756C9.95625 15.5756 13.0725 13.32 14.58 10.3444C15.345 8.84812 15.7163 7.32938 15.7163 5.79375V5.535C15.6994 5.43938 15.6994 5.36625 15.6994 5.34938C16.3785 4.86337 16.9668 4.26171 17.4375 3.57187" fill="black"/>
</svg>
